<mxfile host="app.diagrams.net" modified="2021-12-08T08:07:14.374Z" agent="5.0 (Windows NT 10.0; Win64; x64) AppleWebKit/537.36 (KHTML, like Gecko) Chrome/96.0.4664.45 Safari/537.36" etag="kiW8kSOgJmJGnLseJsFn" version="15.9.1" type="github">
  <diagram id="gOD03eMYmSTO8JCuaFLT" name="Page-1">
    <mxGraphModel dx="868" dy="492" grid="1" gridSize="10" guides="1" tooltips="1" connect="1" arrows="1" fold="1" page="1" pageScale="1" pageWidth="827" pageHeight="1169" math="0" shadow="0">
      <root>
        <mxCell id="0" />
        <mxCell id="1" parent="0" />
        <mxCell id="y7lWrT9xWMFBaa4Sz3RD-1" value="" style="rounded=1;whiteSpace=wrap;html=1;" vertex="1" parent="1">
          <mxGeometry x="170" y="110" width="100" height="60" as="geometry" />
        </mxCell>
        <mxCell id="y7lWrT9xWMFBaa4Sz3RD-2" value="" style="ellipse;whiteSpace=wrap;html=1;" vertex="1" parent="1">
          <mxGeometry x="390" y="110" width="120" height="80" as="geometry" />
        </mxCell>
        <mxCell id="y7lWrT9xWMFBaa4Sz3RD-3" value="" style="rhombus;whiteSpace=wrap;html=1;" vertex="1" parent="1">
          <mxGeometry x="180" y="260" width="80" height="80" as="geometry" />
        </mxCell>
        <mxCell id="y7lWrT9xWMFBaa4Sz3RD-4" value="" style="shape=document;whiteSpace=wrap;html=1;boundedLbl=1;" vertex="1" parent="1">
          <mxGeometry x="390" y="270" width="120" height="80" as="geometry" />
        </mxCell>
        <mxCell id="y7lWrT9xWMFBaa4Sz3RD-5" value="" style="endArrow=classic;startArrow=classic;html=1;rounded=0;entryX=0.5;entryY=1;entryDx=0;entryDy=0;exitX=0.5;exitY=0;exitDx=0;exitDy=0;" edge="1" parent="1" source="y7lWrT9xWMFBaa4Sz3RD-3" target="y7lWrT9xWMFBaa4Sz3RD-1">
          <mxGeometry width="50" height="50" relative="1" as="geometry">
            <mxPoint x="200" y="270" as="sourcePoint" />
            <mxPoint x="250" y="220" as="targetPoint" />
          </mxGeometry>
        </mxCell>
      </root>
    </mxGraphModel>
  </diagram>
</mxfile>
